#!OML:ASF H:\Pregnant\Project 1\Capture day 1\Session 1\femalepreg.ASF
:FULLY-SPECIFIED
:DEGREES
1378
root -10.1643 15.8798 9.11421 16.9965 3.04384 358.138
lowerback -13.1168 0.439415 6.2403
upperback -4.46311 -0.269632 1.82939
thorax 2.6267 -0.146759 -1.64442
lowerneck -16.8638 3.97854 6.00861
upperneck 34.4894 5.70478 -4.709
head 15.2009 2.5794 -2.00131
rclavicle -6.88292e-015 7.95139e-016
rhumerus -30.4417 -0.880831 -82.1495
rradius 28.2077
rwrist -5.21001
rhand -13.7373 -15.9368
rfingers 7.12502
rthumb 12.3824 -45.5501
lclavicle -6.88292e-015 7.95139e-016
lhumerus -43.6063 9.38363 72.3717
lradius 22.0902
lwrist 36.7425
lhand -17.0177 -0.295561
lfingers 7.12502
lthumb 9.21831 29.4829
rfemur -38.7071 12.2946 23.6148
rtibia 37.1681
rfoot -10.246 -10.7268
rtoes -9.1806
lfemur -27.5735 -8.69858 -18.0856
ltibia 57.3137
lfoot 0.435569 -12.1931
ltoes -27.3572
1379
root -10.1707 15.8798 9.19815 16.9593 3.00168 357.761
lowerback -12.8476 0.554231 6.99078
upperback -4.45767 -0.193954 1.97896
thorax 2.48468 -0.115429 -1.89622
lowerneck -16.9435 4.01245 6.0701
upperneck 34.4956 5.78399 -4.85343
head 15.2372 2.59986 -2.05761
rclavicle 1.18028e-014 -6.36111e-015
rhumerus -30.3902 -0.10092 -82.3575
rradius 28.5161
rwrist -5.47041
rhand -13.3899 -15.509
rfingers 7.12502
rthumb 12.7174 -45.1017
lclavicle 1.18028e-014 -6.36111e-015
lhumerus -43.7947 9.03911 72.9361
lradius 22.2704
lwrist 36.6963
lhand -16.2041 -0.148775
lfingers 7.12502
lthumb 10.0032 29.5935
rfemur -38.0851 12.0969 24.2368
rtibia 36.7495
rfoot -10.4701 -10.4298
rtoes -9.20669
lfemur -29.022 -8.60584 -17.6292
ltibia 59.0552
lfoot 0.00496503 -11.7419
ltoes -27.2768
1380
root -10.1773 15.8785 9.28113 16.9104 2.90819 357.436
lowerback -12.5709 0.668537 7.64599
upperback -4.42884 -0.102942 2.11956
thorax 2.36629 -0.0756696 -2.10168
lowerneck -17.0363 4.0371 6.11382
upperneck 34.4866 5.84642 -4.97895
head 15.2666 2.61317 -2.10549
rclavicle -3.8763e-015 3.97569e-015
rhumerus -30.2987 0.640952 -82.5233
rradius 28.7908
rwrist -5.59994
rhand -13.0382 -15.0871
rfingers 7.12502
rthumb 13.0563 -44.6585
lclavicle -3.8763e-015 3.97569e-015
lhumerus -43.9249 8.69692 73.535
lradius 22.4618
lwrist 36.6176
lhand -15.3502 -0.15269
lfingers 7.12502
lthumb 10.827 29.5482
rfemur -37.4918 11.9377 24.7892
rtibia 36.3943
rfoot -10.7071 -10.1474
rtoes -9.20764
lfemur -30.4117 -8.46915 -17.2514
ltibia 60.6257
lfoot -0.412731 -11.1425
ltoes -27.1522
1381
root -10.1841 15.8759 9.36381 16.842 2.75945 357.174
lowerback -12.2907 0.783481 8.19652
upperback -4.36982 0.00429135 2.24478
thorax 2.28132 -0.0260579 -2.26251
lowerneck -17.1439 4.05111 6.14084
upperneck 34.4592 5.88803 -5.08231
head 15.2875 2.6182 -2.1444
rclavicle -5.71506e-015 7.95139e-015
rhumerus -30.1539 1.32802 -82.6432
rradius 29.0149
rwrist -5.59612
rhand -12.6443 -14.7239
rfingers 7.12502
rthumb 13.4361 -44.2705
lclavicle -5.71506e-015 7.95139e-015
lhumerus -43.9905 8.37626 74.1444
lradius 22.6443
lwrist 36.4507
lhand -14.442 -0.294545
lfingers 7.12502
lthumb 11.7029 29.3586
rfemur -36.9247 11.8099 25.2621
rtibia 36.1223
rfoot -10.9695 -9.8791
rtoes -9.21967
lfemur -31.7147 -8.2981 -16.9686
ltibia 62.011
lfoot -0.837143 -10.4293
ltoes -27.131
1382
root -10.1913 15.8721 9.44608 16.7683 2.56376 356.985
lowerback -12.0224 0.898058 8.63169
upperback -4.28503 0.125111 2.35112
thorax 2.23336 0.0325916 -2.37709
lowerneck -17.2623 4.05264 6.15053
upperneck 34.4111 5.90643 -5.16354
head 15.2975 2.61393 -2.17466
rclavicle -9.0944e-015 2.46493e-014
rhumerus -29.9577 1.93872 -82.7141
rradius 29.1833
rwrist -5.47119
rhand -12.254 -14.4418
rfingers 7.12502
rthumb 13.8122 -43.9632
lclavicle -9.0944e-015 2.46493e-014
lhumerus -43.9863 8.08253 74.7504
lradius 22.8033
lwrist 36.1746
lhand -13.4764 -0.625188
lfingers 7.12502
lthumb 12.6339 28.9727
rfemur -36.4059 11.707 25.6447
rtibia 35.9463
rfoot -11.2612 -9.62813
rtoes -9.22733
lfemur -32.942 -8.10569 -16.7838
ltibia 63.2033
lfoot -1.25967 -9.65153
ltoes -27.1069
1383
root -10.199 15.8675 9.52854 16.6829 2.32624 356.872
lowerback -11.7583 1.00869 8.95166
upperback -4.17898 0.254626 2.43857
thorax 2.21282 0.0976457 -2.44645
lowerneck -17.3837 4.04143 6.13813
upperneck 34.3425 5.90196 -5.2188
head 15.2945 2.60058 -2.19384
rclavicle -1.33683e-014 4.69132e-014
rhumerus -29.7176 2.47895 -82.7432
rradius 29.2896
rwrist -5.26089
rhand -11.9159 -14.2035
rfingers 7.12502
rthumb 14.138 -43.7025
lclavicle -1.33683e-014 4.69132e-014
lhumerus -43.9274 7.81394 75.3468
lradius 22.9468
lwrist 35.8091
lhand -12.4966 -1.08834
lfingers 7.12502
lthumb 13.5784 28.4489
rfemur -35.9234 11.6401 25.9328
rtibia 35.8631
rfoot -11.5795 -9.41223
rtoes -9.24216
lfemur -34.0813 -7.90153 -16.6983
ltibia 64.1971
lfoot -1.68506 -8.85697
ltoes -27.0436
